<svg xmlns="http://www.w3.org/2000/svg" viewBox="0 0 500 500"><g id="freepik--background-complete--inject-103"><rect y="382.4" width="500" height="0.25" style="fill:#ebebeb"></rect><rect x="416.78" y="398.49" width="33.12" height="0.25" style="fill:#ebebeb"></rect><rect x="322.53" y="401.21" width="8.69" height="0.25" style="fill:#ebebeb"></rect><rect x="396.59" y="389.21" width="19.19" height="0.25" style="fill:#ebebeb"></rect><rect x="52.46" y="390.89" width="43.19" height="0.25" style="fill:#ebebeb"></rect><rect x="104.56" y="390.89" width="6.33" height="0.25" style="fill:#ebebeb"></rect><rect x="131.47" y="395.11" width="93.68" height="0.25" style="fill:#ebebeb"></rect><path d="M237,337.8H43.91a5.71,5.71,0,0,1-5.7-5.71V60.66A5.71,5.71,0,0,1,43.91,55H237a5.71,5.71,0,0,1,5.71,5.71V332.09A5.71,5.71,0,0,1,237,337.8ZM43.91,55.2a5.46,5.46,0,0,0-5.45,5.46V332.09a5.46,5.46,0,0,0,5.45,5.46H237a5.47,5.47,0,0,0,5.46-5.46V60.66A5.47,5.47,0,0,0,237,55.2Z" style="fill:#ebebeb"></path><path d="M453.31,337.8H260.21a5.72,5.72,0,0,1-5.71-5.71V60.66A5.72,5.72,0,0,1,260.21,55h193.1A5.71,5.71,0,0,1,459,60.66V332.09A5.71,5.71,0,0,1,453.31,337.8ZM260.21,55.2a5.47,5.47,0,0,0-5.46,5.46V332.09a5.47,5.47,0,0,0,5.46,5.46h193.1a5.47,5.47,0,0,0,5.46-5.46V60.66a5.47,5.47,0,0,0-5.46-5.46Z" style="fill:#ebebeb"></path><polygon points="70.39 159.67 77.48 378.41 83.69 378.41 90.78 159.67 70.39 159.67" style="fill:#f5f5f5"></polygon><path d="M58.85,382.4h43.47a5.48,5.48,0,0,0-5.48-5.48H64.32a5.47,5.47,0,0,0-5.47,5.48Z" style="fill:#f0f0f0"></path><polygon points="57.9 236.33 103.27 236.33 98.05 150.1 63.12 150.1 57.9 236.33" style="fill:#e0e0e0"></polygon><polygon points="66.7 236.33 94.47 236.33 91.27 150.1 69.9 150.1 66.7 236.33" style="fill:#ebebeb"></polygon><polygon points="74.59 236.33 86.58 236.33 85.2 150.1 75.97 150.1 74.59 236.33" style="fill:#e0e0e0"></polygon><rect x="150.33" y="267.67" width="222" height="114.73" style="fill:#f5f5f5"></rect><rect x="150.33" y="263" width="222" height="4.67" style="fill:#fafafa"></rect><rect x="372.33" y="267.67" width="44.45" height="114.73" transform="translate(789.11 650.07) rotate(180)" style="fill:#ebebeb"></rect><rect x="372.33" y="263" width="44.45" height="4.67" transform="translate(789.11 530.67) rotate(180)" style="fill:#f0f0f0"></rect><polygon points="342.58 260.33 314.88 260.33 309.89 221.89 244.55 221.89 249.89 263 278.14 263 315.23 263 343.48 263 342.58 260.33" style="fill:#f0f0f0"></polygon><rect x="126.33" y="91.44" width="64.89" height="92.88" style="fill:#ebebeb"></rect><rect x="116.34" y="109.44" width="84.88" height="56.89" transform="translate(296.66 -20.89) rotate(90)" style="fill:#fafafa"></rect><rect x="157.89" y="129.43" width="1.77" height="43.11" transform="translate(309.76 -7.79) rotate(90)" style="fill:#f5f5f5"></rect><rect x="157.89" y="135.14" width="1.77" height="43.11" transform="translate(315.47 -2.08) rotate(90)" style="fill:#f5f5f5"></rect><rect x="157.89" y="140.85" width="1.77" height="43.11" transform="translate(321.19 3.63) rotate(90)" style="fill:#f5f5f5"></rect><path d="M158.78,140.06a15.56,15.56,0,1,1,15.55-15.56A15.58,15.58,0,0,1,158.78,140.06Zm0-30.12a14.56,14.56,0,1,0,14.55,14.56A14.57,14.57,0,0,0,158.78,109.94Z" style="fill:#ebebeb"></path><rect x="88.28" y="137.5" width="84.88" height="0.78" transform="translate(268.61 7.16) rotate(90)" style="fill:#e0e0e0"></rect><rect x="145.17" y="137.5" width="92.88" height="0.78" transform="translate(329.5 -53.72) rotate(90)" style="fill:#e0e0e0"></rect><rect x="234.35" y="79.34" width="195.4" height="119.92" transform="translate(664.09 278.59) rotate(180)" style="fill:#e6e6e6"></rect><path d="M219.41,74.57H438.77A1.39,1.39,0,0,1,440.16,76h0a1.38,1.38,0,0,1-1.39,1.38H219.41A1.38,1.38,0,0,1,218,76h0A1.39,1.39,0,0,1,219.41,74.57Z" style="fill:#e6e6e6"></path><rect x="228.43" y="79.34" width="198.55" height="119.92" transform="translate(655.41 278.59) rotate(180)" style="fill:#f0f0f0"></rect><rect x="276.03" y="48.3" width="103.35" height="181.99" transform="translate(467 -188.41) rotate(90)" style="fill:#fafafa"></rect><polygon points="377.67 190.97 323.47 87.62 295.57 87.62 349.76 190.97 377.67 190.97" style="fill:#fff"></polygon><polygon points="343.77 190.97 289.57 87.62 278.7 87.62 332.89 190.97 343.77 190.97" style="fill:#fff"></polygon><rect x="185.56" y="138.77" width="103.35" height="1.05" transform="translate(376.53 -97.94) rotate(90)" style="fill:#e6e6e6"></rect><g style="opacity:0.4"><rect x="418.61" y="72.1" width="14.25" height="142.9" transform="translate(851.46 287.1) rotate(180)" style="fill:#f0f0f0"></rect><rect x="413.05" y="72.1" width="11.1" height="142.9" transform="translate(837.21 287.1) rotate(180)" style="fill:#e6e6e6"></rect><rect x="404.35" y="72.1" width="14.25" height="142.9" transform="translate(822.96 287.1) rotate(180)" style="fill:#f0f0f0"></rect><rect x="398.8" y="72.1" width="11.1" height="142.9" transform="translate(808.7 287.1) rotate(180)" style="fill:#e6e6e6"></rect><rect x="390.1" y="72.1" width="14.25" height="142.9" transform="translate(794.45 287.1) rotate(180)" style="fill:#f0f0f0"></rect></g><g style="opacity:0.4"><rect x="242.02" y="72.1" width="8.21" height="142.9" transform="translate(492.25 287.1) rotate(180)" style="fill:#f0f0f0"></rect><rect x="238.82" y="72.1" width="6.4" height="142.9" transform="translate(484.03 287.1) rotate(180)" style="fill:#e6e6e6"></rect><rect x="233.8" y="72.1" width="8.21" height="142.9" transform="translate(475.82 287.1) rotate(180)" style="fill:#f0f0f0"></rect><rect x="230.6" y="72.1" width="6.4" height="142.9" transform="translate(467.6 287.1) rotate(180)" style="fill:#e6e6e6"></rect><rect x="225.59" y="72.1" width="8.21" height="142.9" transform="translate(459.39 287.1) rotate(180)" style="fill:#f0f0f0"></rect></g></g><g id="freepik--Shadow--inject-103"><ellipse id="freepik--path--inject-103" cx="255" cy="416.24" rx="193.89" ry="11.32" style="fill:#f5f5f5"></ellipse></g><g id="freepik--Character--inject-103"><ellipse cx="187.81" cy="360.63" rx="45.64" ry="57.33" transform="translate(-201.49 478.01) rotate(-79.27)" style="fill:#407BFF"></ellipse><path d="M178,416c3.44.41,10.67.38,8.61-1.44s-5.83-.15-5.71-6.64.72-12.17.72-12.17l-1.2-.15-1.2-.14s-.76,5.66-2.16,12-4.68,3.83-7.1,5.12S174.56,415.58,178,416Z" style="fill:#407BFF"></path><path d="M262.45,374.78c.66-3.45.7-10.84-2.05-9s-.29,5.94-10,4.76-18.18-2.7-18.18-2.7L232,369l-.23,1.2s8.46,1.69,17.91,4.15,5.67,5.39,7.56,8.08S261.8,378.23,262.45,374.78Z" style="fill:#407BFF"></path><path d="M113.17,346.49c-.54,2.84-.34,9,2.33,7.55s.09-4.9,9.77-3.62,18.16,2.83,18.16,2.83l.19-1,.19-1s-8.46-1.67-17.94-4-5.8-4.65-7.77-6.94S113.71,343.65,113.17,346.49Z" style="fill:#407BFF"></path><path d="M142.19,306c-3.16,1.23-9,4.78-5.75,5.73s4.86-2.68,10.43,4.35,10,13.4,10,13.4L158,329l1.1-.43s-4.33-6.44-8.72-13.92.46-6.38,1.31-8.94S145.34,304.74,142.19,306Z" style="fill:#407BFF"></path><path d="M226.77,412c3.12-1.56,8.91-5.81,5.72-6.61s-4.82,3.24-10.2-4-9.71-13.83-9.71-13.83l-1.09.55-1.08.54s4.17,6.68,8.4,14.48-.53,6.95-1.4,9.78S223.66,413.54,226.77,412Z" style="fill:#407BFF"></path><path d="M243.67,332.11c-2-2.33-7-6.72-7.13-4.43s3.87,3.63-1.77,7.23-10.9,6.45-10.9,6.45l.7.81.7.81s5.36-2.74,11.74-5.47,6.48.68,9.24,1.43S245.68,334.44,243.67,332.11Z" style="fill:#407BFF"></path><path d="M127.09,392.68c2.28,2.54,8,7.22,8.43,4.54s-4.46-3.9,2.83-8.6,14.06-8.5,14.06-8.5l-.8-.89-.79-.88s-6.87,3.68-15,7.44-8-.23-11.3-.85S124.82,390.14,127.09,392.68Z" style="fill:#407BFF"></path><path d="M163.8,304.51c-3.21.37-9.57,2.1-7,3.58s5.2-1.21,7.81,5.83,4.48,13.31,4.48,13.31l1.12-.13,1.12-.13s-1.72-6.29-3.14-13.47,2.52-5.23,4.11-7.2S167,304.14,163.8,304.51Z" style="fill:#407BFF"></path><path d="M201.93,416.19c3.93-.1,11.87-1.32,9-3s-6.46.79-8.58-6.46-3.43-13.67-3.43-13.67l-1.37,0-1.37,0s1.13,6.43,1.79,13.71-3.82,5-6,6.86S198,416.3,201.93,416.19Z" style="fill:#407BFF"></path><path d="M258.05,350.82c-1-3.21-4.14-9.69-5.6-7.33s2.35,5.27-6.08,7-16,2.81-16,2.81l.34,1.12.34,1.11s7.63-.93,16.42-1.46,7,3.11,9.68,4.92S259,354,258.05,350.82Z" style="fill:#407BFF"></path><path d="M118.76,369.52c.83,2.57,3.73,7.71,5.26,5.73s-2.12-4.19,6.31-5.93,16-2.91,16-2.91l-.29-.89-.29-.9s-7.6,1.05-16.34,1.84-6.79-2.26-9.41-3.63S117.92,367,118.76,369.52Z" style="fill:#407BFF"></path><path d="M128.64,327.86c-2.08,2.63-5.32,8.65-2.14,8s2.83-4.76,10.81-1,14.75,7.37,14.75,7.37l.72-.92.72-.92s-6.67-3.78-13.87-8.47-2.62-6-3.1-8.75S130.71,325.23,128.64,327.86Z" style="fill:#407BFF"></path><path d="M247,393.41c2.08-2.63,5.33-8.65,2.14-8s-2.83,4.76-10.81,1-14.74-7.37-14.74-7.37l-.73.92-.72.91s6.67,3.78,13.88,8.48,2.61,6,3.1,8.75S244.91,396,247,393.41Z" style="fill:#407BFF"></path><path d="M224,315.65c-3.3-2.14-10.8-5.82-9.86-3.1s5.94,3.13,1.58,9-8.68,10.77-8.68,10.77l1.15.74,1.15.75s4.47-4.79,10.06-9.87,7.33-1.1,10.68-1S227.31,317.8,224,315.65Z" style="fill:#407BFF"></path><path d="M149.44,407.57c3,1.58,9.84,4,9.07,1.39s-5.42-2.11-1.12-8.8,8.52-12.39,8.52-12.39l-1-.55-1-.55s-4.36,5.62-9.77,11.73-6.89,2.4-10,2.92S146.45,406,149.44,407.57Z" style="fill:#407BFF"></path><path d="M163.24,356.07a1.65,1.65,0,0,1-.58-.1,1.76,1.76,0,0,1-1.15-1.27c-1.59-7-2.2-12.7-1.8-17.06a1.77,1.77,0,1,1,3.52.32,47.58,47.58,0,0,0,1.14,13.2c5.12-3.92,9.63-6.6,13.44-8a1.77,1.77,0,1,1,1.21,3.32c-4,1.45-8.92,4.54-14.67,9.19A1.77,1.77,0,0,1,163.24,356.07Z" style="fill:#fff"></path><path d="M174.73,392.78a1.79,1.79,0,0,1-.94-.27,61.73,61.73,0,0,1-11.25-9.69,22.77,22.77,0,0,0-3.71,8,1.77,1.77,0,0,1-3.48-.64c.59-3.17,2.46-6.93,5.56-11.19a1.77,1.77,0,0,1,1.33-.73,1.81,1.81,0,0,1,1.4.57,63,63,0,0,0,12,10.7,1.77,1.77,0,0,1-1,3.26Z" style="fill:#fff"></path><path d="M198.1,371.5c.59-8.27,8.59-23,18.24-17,6.62,4.1-1.75,10-3.12,18.89-1,6.77,4.42,13.72-3.72,17.07S197.34,382.22,198.1,371.5Z" style="fill:#fff"></path><ellipse cx="207.06" cy="346.05" rx="17.12" ry="21.51" transform="translate(-193.24 394.91) rotate(-66.06)" style="fill:#fff;opacity:0.1"></ellipse><ellipse cx="159.91" cy="356.35" rx="17.2" ry="13.69" transform="translate(-118.22 82.12) rotate(-21.24)" style="fill:#fff;opacity:0.1"></ellipse><path d="M189,395.37c-2.6,4-8.83,4.66-13.91,1.38s-7.07-9.2-4.47-13.24,8.84-4.66,13.91-1.39S191.6,391.33,189,395.37Z" style="fill:#fff;opacity:0.1"></path><ellipse cx="219.07" cy="385.52" rx="10.94" ry="8.71" transform="translate(-159.84 155.21) rotate(-29.1)" style="fill:#fff;opacity:0.1"></ellipse><path d="M289,90c6.76-3.33,17.88.6,21.76,11s-2.92,16.91-.58,24.41,3.8,11.8,2.5,23.47-10,17.25-16.63,7.36-21.81-8.92-21.13-17.08,4.51-25.24,2.59-32S282.24,90.58,289,90Z" style="fill:#263238"></path><polygon points="203.61 318.01 194.25 316.13 200.24 294.81 209.59 296.68 203.61 318.01" style="fill:#ffc3bd"></polygon><path d="M194.83,309.55l10.56,1.85a.71.71,0,0,1,.6.77l-.72,8.48a1.63,1.63,0,0,1-1.89,1.39c-3.66-.71-5.39-1.23-10-2-2.85-.5-11.12-1.65-15.07-2.34s-3.25-4.59-1.53-4.65c7.73-.28,13.42-1.53,16.38-3.16A2.62,2.62,0,0,1,194.83,309.55Z" style="fill:#263238"></path><g style="opacity:0.2"><polygon points="200.24 294.81 197.15 305.81 206.51 307.68 209.6 296.69 200.24 294.81"></polygon></g><path d="M270.87,199.42s-64.69,9.67-66.46,38.6c-1.84,30.1-8.57,61.62-8.57,61.62l14.77,5.52s14.27-35.8,17.86-65.3c30.93-8.49,72.54-6.64,70.8-41.29Z" style="fill:#407BFF"></path><path d="M270.87,199.42s-64.69,9.67-66.46,38.6c-1.84,30.1-8.57,61.62-8.57,61.62l14.77,5.52s14.27-35.8,17.86-65.3c30.93-8.49,72.54-6.64,70.8-41.29Z" style="fill:#fff;opacity:0.2"></path><polygon points="211.45 306.41 194.87 301.59 195.27 296.71 213.99 300.9 211.45 306.41" style="fill:#263238"></polygon><path d="M190.93,310.56a3.46,3.46,0,0,1-2.15-1,1.22,1.22,0,0,1-.15-1.15.8.8,0,0,1,.51-.52c1.3-.42,4.6,2.13,5,2.43a.2.2,0,0,1,.06.24.25.25,0,0,1-.22.16A17.33,17.33,0,0,1,190.93,310.56Zm-1.23-2.22a.87.87,0,0,0-.43,0,.3.3,0,0,0-.21.21.79.79,0,0,0,.1.75c.45.61,2,1,4.14,1A11.81,11.81,0,0,0,189.7,308.34Z" style="fill:#407BFF"></path><path d="M193.92,310.74a.16.16,0,0,1-.09,0c-1-.7-2.75-3.1-2.33-4.12.09-.24.35-.52,1-.47a1.55,1.55,0,0,1,1.14.59c.95,1.18.59,3.73.57,3.83a.26.26,0,0,1-.13.19A.23.23,0,0,1,193.92,310.74Zm-1.37-4.16-.13,0c-.42,0-.48.13-.5.18-.25.61.89,2.46,1.87,3.34a5,5,0,0,0-.53-3.08A1.14,1.14,0,0,0,192.55,306.58Z" style="fill:#407BFF"></path><polygon points="328.68 406.84 319.14 406.84 316.74 384.75 326.28 384.75 328.68 406.84" style="fill:#ffc3bd"></polygon><path d="M318.31,405.73H329a.74.74,0,0,1,.75.66l1.08,8.47a1.57,1.57,0,0,1-1.56,1.7c-3.74-.06-5.53-.28-10.24-.28-2.9,0-7.8.3-11.81.3s-4.15-4-2.47-4.32c7.5-1.61,9.38-3.82,11.93-5.94A2.53,2.53,0,0,1,318.31,405.73Z" style="fill:#263238"></path><g style="opacity:0.2"><polygon points="316.75 384.76 317.98 396.14 327.52 396.14 326.29 384.76 316.75 384.76"></polygon></g><path d="M309.66,198.26c10.22,14.77,3.13,69,6.42,98,10.15,26.45,12.22,97.69,12.22,97.69h-12S302.62,328.14,294,296.1c-10.5-31.66-14.72-96.93-14.72-96.93S295.69,198.54,309.66,198.26Z" style="fill:#407BFF"></path><path d="M309.66,198.26c10.22,14.77,3.13,69,6.42,98,10.15,26.45,12.22,97.69,12.22,97.69h-12S302.62,328.14,294,296.1c-10.5-31.66-14.72-96.93-14.72-96.93S295.69,198.54,309.66,198.26Z" style="fill:#fff;opacity:0.30000000000000004"></path><polygon points="329.19 394.4 314.06 394.4 313.21 389.57 330.19 388.98 329.19 394.4" style="fill:#263238"></polygon><path d="M317.09,406a4.77,4.77,0,0,1-2.14-1.53,1.26,1.26,0,0,1-.13-1.17.55.55,0,0,1,.52-.37c1.32-.08,4.61,3.31,5,3.7a.25.25,0,0,1,.07.26.2.2,0,0,1-.23.1A20.63,20.63,0,0,1,317.09,406Zm-1.19-2.51a.91.91,0,0,0-.44-.11.21.21,0,0,0-.21.16.83.83,0,0,0,.08.76c.44.72,2,1.48,4.16,2.07A16.67,16.67,0,0,0,315.9,403.49Z" style="fill:#407BFF"></path><path d="M320.11,407a.18.18,0,0,1-.09-.06c-1-1-2.72-3.78-2.28-4.67.11-.22.37-.43,1-.21a2.08,2.08,0,0,1,1.14.89c.94,1.41.53,3.83.51,3.93a.17.17,0,0,1-.14.14A.22.22,0,0,1,320.11,407Zm-1.3-4.47-.13-.05c-.42-.14-.49,0-.51,0-.27.54.84,2.66,1.82,3.79a5.39,5.39,0,0,0-.48-3.18A1.56,1.56,0,0,0,318.81,402.5Z" style="fill:#407BFF"></path><path d="M312.28,142.36c4,4.62,7.72,9.3,11.38,14.13s7.23,9.73,10.56,15c.41.64.81,1.34,1.22,2s.8,1.36,1.18,2.08l.59,1.06.14.27c.09.16.2.41.29.62a6.66,6.66,0,0,1,.41,1.34,8.32,8.32,0,0,1-.36,4.45,16.84,16.84,0,0,1-3.07,5.06,34.73,34.73,0,0,1-3.48,3.57,82.52,82.52,0,0,1-15.25,10.65l-2.72-4a141.78,141.78,0,0,0,12.51-12,38.94,38.94,0,0,0,2.47-3.15,8.78,8.78,0,0,0,1.37-2.69c.06-.28,0-.33,0,0,0,.08,0,.18.07.27a.87.87,0,0,0,.05.12l-.14-.22L329,180c-.35-.58-.73-1.17-1.14-1.76s-.78-1.18-1.2-1.77c-3.31-4.72-6.94-9.39-10.6-14s-7.45-9.25-11.18-13.8Z" style="fill:#ffc3bd"></path><path d="M270.26,150.82c-.57.15-.89.22-1.3.31l-1.16.23c-.77.13-1.52.25-2.27.34-1.5.21-3,.34-4.46.45-3,.19-5.89.16-8.81.07s-5.82-.35-8.7-.72c-1.44-.17-2.87-.4-4.3-.62l-4.25-.79-.24,0a4.12,4.12,0,0,1-3-2.5,12.3,12.3,0,0,1-.75-6.09,27.16,27.16,0,0,1,1-4.72,55.39,55.39,0,0,1,3.23-8.12c1.24-2.55,2.59-5,4-7.39s2.94-4.7,4.62-7a2.43,2.43,0,0,1,4.17,2.43l0,0c-1.08,2.4-2.19,4.87-3.18,7.33s-2,4.92-2.84,7.38a56.64,56.64,0,0,0-2.07,7.29,18.6,18.6,0,0,0-.4,3.31,4,4,0,0,0,.29,1.91l-3.28-2.54,4,.47c1.34.1,2.67.28,4,.36s2.67.19,4,.22,2.67.11,4,.13c2.66,0,5.3-.07,7.91-.25,1.3-.09,2.59-.21,3.86-.38.64-.07,1.25-.18,1.87-.27l.9-.15.73-.14.34-.07a4.87,4.87,0,0,1,2.16,9.49Z" style="fill:#ffc3bd"></path><path d="M248.57,105.69l-.6.32a7.51,7.51,0,0,0-3.49,4l-2.08,5.59s-3.37,5.25-5.46,7.19c1.54,2,5.92,4.23,7.73,3.82a35.65,35.65,0,0,0,2.46-6.77,18.59,18.59,0,0,0,5.09-4l2.21-2.15a3.79,3.79,0,0,0,.41-5l-1.43-2A3.77,3.77,0,0,0,248.57,105.69Z" style="fill:#407BFF"></path><path d="M248.57,105.69l-.6.32a7.51,7.51,0,0,0-3.49,4l-2.08,5.59s-3.37,5.25-5.46,7.19c1.54,2,5.92,4.23,7.73,3.82a35.65,35.65,0,0,0,2.46-6.77,18.59,18.59,0,0,0,5.09-4l2.21-2.15a3.79,3.79,0,0,0,.41-5l-1.43-2A3.77,3.77,0,0,0,248.57,105.69Z" style="fill:#fff;opacity:0.6000000000000001"></path><path d="M273.85,139.9c-4,.56-26.82,2.16-26.82,2.16l3,21.72s18.53-1.7,22-5.67C275.61,154,279.71,139.1,273.85,139.9Z" style="fill:#407BFF"></path><path d="M265.26,146.84c-1.68,2.42-3.42,9.87-3.35,15.16,1.71-.36,3.41-.77,4.92-1.25Z" style="opacity:0.2"></path><path d="M308.22,139.37a7.43,7.43,0,0,1,6.13,8.88c-7.33,31.49-1,43.56-4,51.17-7,4.32-30.47,4.75-40.05.16-1.64-4.16.62-8.52-.39-15.83-1.84-13.28-6.17-16.95-6.17-34.52,0-4.45,1.76-7.74,5.67-8.52C276.71,139.26,293.49,136.54,308.22,139.37Z" style="fill:#407BFF"></path><path d="M296.23,183.33s7,3.09,12,3.59c.12.78.22,2.06.3,3.48.29,5.21-5.13,9.07-9.79,6.74a4.45,4.45,0,0,1-2.53-2.72C294.92,189.5,296.23,183.33,296.23,183.33Z" style="fill:#fff;opacity:0.2"></path><path d="M273.33,182s-2.46,3.08-4.21,3.58c0,.78-.08,2.06-.11,3.49-.1,5.2,1.8,9.06,3.44,6.74a5.58,5.58,0,0,0,.88-2.73A79.24,79.24,0,0,0,273.33,182Z" style="fill:#407BFF"></path><path d="M273.33,182s-2.46,3.08-4.21,3.58c0,.78-.08,2.06-.11,3.49-.1,5.2,1.8,9.06,3.44,6.74a5.58,5.58,0,0,0,.88-2.73A79.24,79.24,0,0,0,273.33,182Z" style="fill:#fff;opacity:0.2"></path><path d="M301.67,159.08c1.12,3.19,6.05,14.36,9,19a113.94,113.94,0,0,1,.59-11.52Z" style="opacity:0.2"></path><path d="M311.7,140.94c3.63,3,14.52,16.89,14.52,16.89l-14.06,17.54S300.1,161.2,300.4,155.94C300.71,150.45,307.13,137.19,311.7,140.94Z" style="fill:#407BFF"></path><path d="M300,165.93l-10.49-.26a1.38,1.38,0,0,1-1.35-1.53l.46-4.6a1.65,1.65,0,0,1,1.65-1.47l10.49.26a1.38,1.38,0,0,1,1.35,1.53l-.46,4.6A1.65,1.65,0,0,1,300,165.93Z" style="fill:#fff"></path><path d="M296,118.82c-.95,5.69-1.74,16.09,2.33,19.75,0,0-2.42,11.9-14.32,16.92-7-5.52-3.27-16.4-3.27-16.4,6.27-1.7,6-6.37,4.74-10.73Z" style="fill:#ffc3bd"></path><path d="M278.35,143.79c4.29,3.07,12,3.59,17.88.88-1.15,3.72-8.55,11.41-12.78,12.64C278,150.34,278.35,143.79,278.35,143.79Z" style="fill:#407BFF;opacity:0.6000000000000001"></path><path d="M291.66,122.71l-6.23,5.64a18.09,18.09,0,0,1,.64,3.11c2.4-.42,5.63-3.17,5.81-5.7A8.55,8.55,0,0,0,291.66,122.71Z" style="opacity:0.2"></path><path d="M289,90c-5.75-3.42-15.32,4.65-16,16.07s1.09,15.61-.75,19.6c-2.67,5.8-3.92,10.39-1.25,16.58,2.21,5.13-2.67,10.42,3.5,16.08,3.84-14.77,6.09-8.8,9.56-19.73,2.06-6.5-3.71-17.26-2-19.47S303.74,101.17,289,90Z" style="fill:#263238"></path><path d="M304.86,110.71c-2.88,9-3.9,12.89-9.72,16.42-8.74,5.32-19.19-.19-19.06-9.89.11-8.73,4.8-22,14.69-23.38A12.91,12.91,0,0,1,304.86,110.71Z" style="fill:#ffc3bd"></path><path d="M291.3,110.07c-.19.75-.73,1.25-1.22,1.13s-.73-.83-.54-1.58.73-1.25,1.22-1.12S291.49,109.32,291.3,110.07Z" style="fill:#263238"></path><path d="M282.19,107.39c-.19.75-.74,1.26-1.23,1.13s-.73-.83-.54-1.57.74-1.25,1.23-1.13S282.38,106.65,282.19,107.39Z" style="fill:#263238"></path><path d="M281.85,105.92l-1.66-1S280.76,106.58,281.85,105.92Z" style="fill:#263238"></path><path d="M285.17,108.83a20.59,20.59,0,0,1-3.87,4.09,3.32,3.32,0,0,0,2.54,1.17Z" style="fill:#ed847e"></path><path d="M288,119a8,8,0,0,1-1.12-.2.22.22,0,0,1-.17-.27.25.25,0,0,1,.28-.17,6.07,6.07,0,0,0,5.4-1.09.23.23,0,0,1,.32,0,.22.22,0,0,1,0,.32A6.28,6.28,0,0,1,288,119Z" style="fill:#263238"></path><path d="M285.43,93.17c.51,5.27,9.73,9.33,12.85,8.69-1.28,3.65-.95,16.23,4.5,14,5.66-4.27,6.5-11.63,3-17.94S295.92,90.17,285.43,93.17Z" style="fill:#263238"></path><path d="M288.67,97.33c-5.43,2.23-8.48,2.23-8.48,2.23s-.28-6,5.6-6.49S288.67,97.33,288.67,97.33Z" style="fill:#263238"></path><path d="M299.37,124.92a.25.25,0,0,1-.17-.08.24.24,0,0,1,0-.35c4.82-4.82,7-8.47,6.08-10.27a1.4,1.4,0,0,0-.84-.72c-1.82-.59-5.52,1.28-7.73,2.4l-.14.07a.23.23,0,0,1-.33-.11.24.24,0,0,1,.1-.33l.14-.07c2.43-1.23,6.1-3.1,8.11-2.43a1.87,1.87,0,0,1,1.14,1c1.28,2.57-2.65,7.32-6.18,10.84A.25.25,0,0,1,299.37,124.92Z" style="fill:#407BFF"></path><path d="M305.8,119a7.43,7.43,0,0,1-5,2.58c-2.59.19-3.37-2.25-2.22-4.42,1-2,3.62-4.42,6-3.59S307.33,117.19,305.8,119Z" style="fill:#ffc3bd"></path><path d="M295.55,107.81a.45.45,0,0,1-.4-.35c-.46-2-2.93-3.09-3-3.1a.45.45,0,0,1,.35-.83c.12,0,2.93,1.24,3.49,3.73a.44.44,0,0,1-.34.54A.34.34,0,0,1,295.55,107.81Z" style="fill:#263238"></path><path d="M280.16,102.9a.45.45,0,0,1-.41-.77,4.5,4.5,0,0,1,3.94-1.24.45.45,0,0,1,.33.55.45.45,0,0,1-.54.33h0a3.61,3.61,0,0,0-3.11,1A.45.45,0,0,1,280.16,102.9Z" style="fill:#263238"></path><path d="M291,108.59l-1.66-1S289.87,109.25,291,108.59Z" style="fill:#263238"></path><path d="M276.33,110.8c-1.55-1.24-1.95,7.33-.62,12.12s9,7.91,14.71,7.12a14.34,14.34,0,0,0,9-5.37s-6.67-5.17-2.92-8.92c-7.88-.21-10.58-3.25-13.42-3.92S278.58,112.6,276.33,110.8Z" style="fill:#fff"></path><path d="M288.63,130.41c-5.41,0-11.91-2.94-13.16-7.43-1.19-4.27-1.05-11.6.24-12.45a.64.64,0,0,1,.78.07,4.34,4.34,0,0,0,3.59.85,9.36,9.36,0,0,1,3,.14,13.17,13.17,0,0,1,2.81,1.17,22.35,22.35,0,0,0,10.55,2.74.25.25,0,0,1,.23.16.25.25,0,0,1-.06.27,3.38,3.38,0,0,0-1.06,2.65c.18,2.93,3.92,5.86,4,5.89a.25.25,0,0,1,.05.34,14.71,14.71,0,0,1-9.13,5.48A13.46,13.46,0,0,1,288.63,130.41ZM276,110.93a.11.11,0,0,0-.06,0c-.91.6-1.26,7.49,0,11.9,1.33,4.77,9,7.7,14.44,6.94a14.12,14.12,0,0,0,8.64-5.08c-.81-.67-3.78-3.31-4-6.1a3.7,3.7,0,0,1,.85-2.63,22.78,22.78,0,0,1-10.23-2.77,13.1,13.1,0,0,0-2.71-1.13,8.57,8.57,0,0,0-2.86-.13,4.93,4.93,0,0,1-3.94-1h0A.22.22,0,0,0,276,110.93Z" style="fill:#407BFF"></path><path d="M294,121.58c-5.29,0-13.71-2.23-17.32-4.6a.25.25,0,0,1-.08-.34.26.26,0,0,1,.35-.08c3.48,2.28,11.93,4.52,17.05,4.52a.25.25,0,0,1,.25.25A.25.25,0,0,1,294,121.58Z" style="fill:#407BFF;opacity:0.1"></path><path d="M290.63,125.19c-4.92,0-11-1.16-13.26-2.59a.24.24,0,0,1-.08-.34.24.24,0,0,1,.34-.08c3,1.86,13.12,3.3,17.6,2a.24.24,0,0,1,.3.17.24.24,0,0,1-.17.31A18,18,0,0,1,290.63,125.19Z" style="fill:#407BFF;opacity:0.1"></path><path d="M321.67,189.71a66.84,66.84,0,0,1-6,6.08L310,197a10.47,10.47,0,0,0-6.47,4.34h0a3,3,0,0,0,.47,3.91l2.8,2.54a3,3,0,0,0,3.94.08l2.89-2.4s6.18-.45,6-4.57c0,0,2.37-1.34,5-3C324.88,196,323.54,192,321.67,189.71Z" style="fill:#407BFF"></path><path d="M321.67,189.71a66.84,66.84,0,0,1-6,6.08L310,197a10.47,10.47,0,0,0-6.47,4.34h0a3,3,0,0,0,.47,3.91l2.8,2.54a3,3,0,0,0,3.94.08l2.89-2.4s6.18-.45,6-4.57c0,0,2.37-1.34,5-3C324.88,196,323.54,192,321.67,189.71Z" style="fill:#fff;opacity:0.6000000000000001"></path><rect x="169.27" y="286.28" width="0.91" height="11.03" transform="translate(-120.02 118.6) rotate(-28.95)" style="fill:#407BFF"></rect><rect x="218.36" y="302.97" width="11.03" height="0.91" transform="translate(-101.42 112.71) rotate(-23.2)" style="fill:#407BFF"></rect><rect x="175" y="271.78" width="0.91" height="26.9" transform="translate(-77.26 65.52) rotate(-17.4)" style="fill:#407BFF"></rect></g></svg>