<svg id="Layer_1" enable-background="new 0 0 512 512" height="512" viewBox="0 0 512 512" width="512" xmlns="http://www.w3.org/2000/svg"><g><g><g><path d="m296 384h-68.118c-12.73 0-24.939 5.057-33.941 14.059l-17.941 17.941 40 40 19.314-19.314c3.001-3.001 7.07-4.686 11.314-4.686h49.372c13.255 0 24-10.745 24-24 0-13.255-10.745-24-24-24z" fill="#fab991"/></g><g><path d="m411.313 372.686c-6.248-6.249-16.379-6.249-22.627 0l-59.313 59.314h-82.745c-4.243 0-8.313 1.686-11.314 4.686l-19.314 19.314 24 24 16-16h76.687c6.411 0 12.438-2.497 16.97-7.03l61.657-61.657c6.248-6.248 6.248-16.378-.001-22.627z" fill="#f0915a"/></g><g><path d="m296 421.333h-5.333c-4.418 0-8-3.582-8-8v-10.667c0-4.418 3.582-8 8-8h5.333c7.364 0 13.333 5.97 13.333 13.333 0 7.365-5.969 13.334-13.333 13.334z" fill="#f0915a"/></g><g><path d="m173.657 413.657 42.343 42.343-40 40h-96l82.343-82.343c3.124-3.124 8.19-3.124 11.314 0z" fill="#555a6e"/></g><g><path d="m216 456 26.343 26.343c3.124 3.124 3.124 8.19 0 11.314l-2.343 2.343h-64z" fill="#463c4b"/></g></g><g><g><path d="m309.449 24.022c-5.889-5.172-13.532-8.022-21.449-8.022-7.917 0-15.56 2.85-21.449 8.022-30.221 26.542-122.551 114.86-122.551 203.178 0 77.762 64.471 140.8 144 140.8s144-63.038 144-140.8c0-88.318-92.33-176.636-122.551-203.178z" fill="#d73728"/></g><g><path d="m216 297.6c39.765 0 72-31.519 72-70.4v-211.2c-7.917 0-15.56 2.85-21.449 8.022-30.221 26.542-122.551 114.86-122.551 203.178 0 .015.001.03.001.045.025 38.86 32.25 70.355 71.999 70.355z" fill="#f05a4b"/></g><g><path d="m176 235.2c-4.418 0-8-3.582-8-8 0-62.434 59.089-136.577 114.388-185.146l.557-.489.638-.379c2.769-1.645 6.678-1.521 9.328.32 3.628 2.521 4.525 7.506 2.004 11.135-.924 1.33-2.18 2.293-3.579 2.855-52.198 46.258-107.336 115.192-107.336 171.704 0 4.419-3.582 8-8 8zm107.802-180.539c.001 0 .001 0 0 0zm-.008-.006s.001.001.001.001-.001-.001-.001-.001zm-.014-.009c.003.002.005.004.008.005-.002-.002-.005-.004-.008-.005z" fill="#ff7869"/></g></g><g><path d="m312.798 176.085c-10.15-.775-19.242 3.842-24.798 11.261-5.556-7.419-14.648-12.036-24.798-11.261-15.32 1.17-26.59 14.85-25.985 30.203 1.197 30.329 28.587 53.696 40.105 62.215 3.091 2.285 6.834 3.497 10.678 3.497 3.844 0 7.587-1.212 10.678-3.498 11.518-8.519 38.908-31.886 40.105-62.215.606-15.352-10.665-29.032-25.985-30.202z" fill="#d7e6f0"/></g></g></svg>